<?xml version="1.0" standalone="no"?>
<!DOCTYPE svg PUBLIC "-//W3C//DTD SVG 20010904//EN"
 "http://www.w3.org/TR/2001/REC-SVG-20010904/DTD/svg10.dtd">
<svg version="1.0" xmlns="http://www.w3.org/2000/svg"
 width="30.000000pt" height="30.000000pt" viewBox="0 0 128.000000 128.000000"
 preserveAspectRatio="xMidYMid meet">

<g transform="translate(0.000000,128.000000) scale(0.100000,-0.100000)"
fill="#000000" stroke="none">
<path d="M492 1245 c-30 -7 -90 -31 -135 -53 -445 -221 -472 -837 -49 -1110
66 -42 133 -68 156 -59 12 5 16 21 16 66 l0 59 -57 -1 c-85 0 -130 27 -168
103 -9 19 -33 52 -53 72 -26 28 -33 41 -25 49 21 21 77 -8 126 -65 50 -58 84
-73 137 -61 23 5 35 17 50 48 11 22 20 42 20 43 0 1 -17 5 -37 9 -156 28 -242
137 -243 306 0 54 6 77 30 125 24 49 29 67 24 104 -3 26 0 62 8 85 12 36 16
40 43 37 17 -2 56 -16 87 -32 57 -29 58 -29 138 -18 61 9 99 9 160 0 80 -11
81 -11 138 18 31 16 70 30 87 32 27 3 31 -1 43 -37 8 -23 11 -60 9 -86 -5 -37
0 -56 24 -104 23 -46 29 -71 29 -122 0 -169 -87 -279 -242 -308 -21 -4 -38 -8
-38 -10 0 -1 7 -16 15 -31 11 -21 15 -62 15 -152 0 -102 3 -124 16 -129 43
-16 205 77 284 163 163 177 215 423 139 651 -28 85 -103 197 -175 261 -67 60
-210 134 -292 151 -70 14 -214 13 -280 -4z"/>
</g>
</svg>
