<?xml version="1.0" standalone="no"?>
<!DOCTYPE svg PUBLIC "-//W3C//DTD SVG 20010904//EN"
 "http://www.w3.org/TR/2001/REC-SVG-20010904/DTD/svg10.dtd">
<svg version="1.0" xmlns="http://www.w3.org/2000/svg"
 width="30.000000pt" height="30.000000pt" viewBox="0 0 128.000000 128.000000"
 preserveAspectRatio="xMidYMid meet">

<g transform="translate(0.000000,128.000000) scale(0.100000,-0.100000)"
fill="#000000" stroke="none">
<path d="M66 1261 c-15 -10 -37 -32 -47 -47 -18 -28 -19 -57 -19 -574 0 -517
1 -546 19 -574 10 -15 32 -37 47 -47 28 -18 57 -19 574 -19 517 0 546 1 574
19 15 10 37 32 47 47 18 28 19 57 19 574 0 517 -1 546 -19 574 -10 15 -32 37
-47 47 -28 18 -57 19 -574 19 -517 0 -546 -1 -574 -19z m282 -174 c31 -15 52
-57 52 -103 0 -51 -53 -104 -104 -104 -74 0 -121 47 -119 117 3 86 88 131 171
90z m602 -328 c56 -25 86 -53 113 -104 20 -37 22 -58 25 -252 l3 -213 -95 0
-96 0 0 170 c0 199 -8 232 -65 255 -31 14 -39 14 -70 0 -57 -23 -65 -56 -65
-255 l0 -170 -95 0 -95 0 0 290 0 290 95 0 95 0 0 -35 c0 -19 2 -35 4 -35 2 0
18 12 35 28 62 54 137 65 211 31z m-570 -279 l0 -290 -95 0 -95 0 0 290 0 290
95 0 95 0 0 -290z"/>
</g>
</svg>
